<svg width="27" height="27" viewBox="0 0 27 27" fill="none" xmlns="http://www.w3.org/2000/svg">
<g clip-path="url(#clip0_18_17462)">
<path d="M8.53125 17.0625C11.0742 17.0625 13.125 19.1543 13.125 21.6973C13.084 22.7637 12.2227 23.625 11.1562 23.625H1.96875C0.861328 23.625 0 22.7637 0 21.6973C-0.0410156 19.1543 2.00977 17.0625 4.59375 17.0625C4.67578 17.0625 4.75781 17.1035 4.88086 17.1445C5.41406 17.3086 5.94727 17.3906 6.5625 17.3906C7.13672 17.3906 7.66992 17.3086 8.20312 17.1445C8.32617 17.1035 8.4082 17.0625 8.53125 17.0625ZM6.5625 15.75C4.34766 15.75 2.625 14.0273 2.625 11.8125C2.625 9.63867 4.34766 7.875 6.5625 7.875C8.73633 7.875 10.5 9.63867 10.5 11.8125C10.5 14.0273 8.73633 15.75 6.5625 15.75ZM24.2812 2.625C25.3477 2.625 26.25 3.56836 26.25 4.67578V17.6777C26.25 18.7852 25.3477 19.6875 24.2812 19.6875H14.2324C13.9453 18.6621 13.3711 17.7598 12.5918 17.0625H15.75V14.4375H21V17.0625H23.625V5.25H9.1875V7.30078C8.4082 6.84961 7.50586 6.5625 6.5625 6.5625V4.67578C6.5625 3.56836 7.42383 2.625 8.53125 2.625H24.2812Z" fill="white"/>
</g>
<defs>
<clipPath id="clip0_18_17462">
<path d="M0.103516 0.0419922L13.2556 0.0419922C20.5193 0.0419922 26.4077 5.93039 26.4077 13.1941C26.4077 20.4578 20.5193 26.3462 13.2556 26.3462C5.99191 26.3462 0.103516 20.4578 0.103516 13.1941L0.103516 0.0419922Z" fill="white"/>
</clipPath>
</defs>
</svg>
