<svg width="44" height="44" viewBox="0 0 44 44" fill="none" xmlns="http://www.w3.org/2000/svg">
<rect x="0.391315" y="0.391315" width="43.0446" height="42.262" rx="8.21761" fill="white" stroke="#E7EAE9" stroke-width="0.782629"/>
<path fill-rule="evenodd" clip-rule="evenodd" d="M26.8721 13.8245L19.2414 21.4551C18.9479 21.7486 18.783 22.1468 18.783 22.5619V24.2615C18.783 24.6937 19.1334 25.0441 19.5656 25.0441H21.2651C21.6803 25.0441 22.0784 24.8792 22.3719 24.5857L30.0026 16.955C30.6138 16.3437 30.6138 15.3527 30.0026 14.7414L29.0856 13.8245C28.4744 13.2132 27.4833 13.2132 26.8721 13.8245ZM21.5418 23.7555C21.4685 23.8289 21.3689 23.8702 21.2651 23.8702H19.9569V22.5619C19.9569 22.4582 19.9981 22.3586 20.0715 22.2852L27.7021 14.6546C27.855 14.5018 28.1027 14.5018 28.2556 14.6546L29.1724 15.5715C29.3253 15.7243 29.3253 15.9721 29.1724 16.1249L21.5418 23.7555Z" fill="black"/>
<path d="M21.1309 14.6743C21.1309 14.9984 20.8681 15.2612 20.5439 15.2612H16.4351C16.219 15.2612 16.0438 15.4364 16.0438 15.6525V27.392C16.0438 27.6081 16.219 27.7833 16.4351 27.7833H28.1746C28.3907 27.7833 28.5659 27.6081 28.5659 27.392V23.2832C28.5659 22.959 28.8287 22.6962 29.1529 22.6962C29.477 22.6962 29.7398 22.959 29.7398 23.2832V27.392C29.7398 28.2564 29.0391 28.9573 28.1746 28.9573H16.4351C15.5707 28.9573 14.8699 28.2564 14.8699 27.392V15.6525C14.8699 14.7881 15.5707 14.0873 16.4351 14.0873H20.5439C20.8681 14.0873 21.1309 14.3501 21.1309 14.6743Z" fill="black"/>
</svg>
