<svg width="26" height="26" viewBox="0 0 26 26" fill="none" xmlns="http://www.w3.org/2000/svg">
<rect x="4.17383" y="3.99951" width="17.2178" height="17.2178" rx="4.69578" fill="#B4D6A4"/>
<path d="M8.08691 13.7824C9.46227 12.407 10.8261 11.0432 11.6087 10.2606C12.3914 9.47794 13.174 12.2171 13.9566 12.2171C14.7393 12.2171 17.0871 8.69531 17.0871 8.69531" stroke="#49982E" stroke-width="1.17394" stroke-linecap="round"/>
<path d="M18.6142 15.1983C18.38 14.4773 17.3599 14.4773 17.1256 15.1983L16.6192 16.7568H14.9805C14.2223 16.7568 13.9071 17.727 14.5204 18.1726L15.8462 19.1358L15.3398 20.6943C15.1055 21.4154 15.9308 22.015 16.5442 21.5694L17.8699 20.6061L19.1957 21.5694C19.809 22.015 20.6343 21.4154 20.4 20.6943L19.8936 19.1358L21.2194 18.1726C21.8327 17.727 21.5175 16.7568 20.7593 16.7568H19.1206L18.6142 15.1983Z" fill="#49982E" stroke="white" stroke-width="0.782629"/>
</svg>
