<svg width="29" height="31" viewBox="0 0 29 31" fill="none" xmlns="http://www.w3.org/2000/svg">
<path fill-rule="evenodd" clip-rule="evenodd" d="M0 2.5C0 1.11929 1.11929 0 2.5 0H3.15381C4.53453 0 5.65381 1.11929 5.65381 2.5V3.63843C5.65381 5.01914 4.53453 6.13843 3.15382 6.13843H2.5C1.11929 6.13843 0 5.01914 0 3.63843V2.5ZM0 14.7769C0 13.3962 1.11929 12.2769 2.5 12.2769H3.15381C4.53453 12.2769 5.65381 13.3962 5.65381 14.7769V15.9154C5.65381 17.2961 4.53453 18.4154 3.15382 18.4154H2.5C1.11929 18.4154 0 17.2961 0 15.9154V14.7769ZM13.8076 0C12.4269 0 11.3076 1.11929 11.3076 2.5V3.63843C11.3076 5.01914 12.4269 6.13843 13.8076 6.13843H14.4615C15.8422 6.13843 16.9615 5.01914 16.9615 3.63843V2.5C16.9615 1.11929 15.8422 0 14.4615 0H13.8076ZM11.3076 14.7769C11.3076 13.3962 12.4269 12.2769 13.8076 12.2769H14.4615C15.8422 12.2769 16.9615 13.3962 16.9615 14.7769V15.9154C16.9615 17.2961 15.8422 18.4154 14.4615 18.4154H13.8076C12.4269 18.4154 11.3076 17.2961 11.3076 15.9154V14.7769ZM25.1153 0C23.7346 0 22.6153 1.11929 22.6153 2.5V3.63843C22.6153 5.01914 23.7346 6.13843 25.1153 6.13843H25.7691C27.1498 6.13843 28.2691 5.01914 28.2691 3.63843V2.5C28.2691 1.11929 27.1498 0 25.7691 0H25.1153ZM22.6153 14.7769C22.6153 13.3962 23.7346 12.2769 25.1153 12.2769H25.7691C27.1498 12.2769 28.2691 13.3962 28.2691 14.7769V15.9154C28.2691 17.2961 27.1498 18.4154 25.7691 18.4154H25.1153C23.7346 18.4154 22.6153 17.2961 22.6153 15.9154V14.7769ZM2.5 24.5537C1.11929 24.5537 0 25.673 0 27.0537V28.1921C0 29.5728 1.11929 30.6921 2.5 30.6921H3.15382C4.53453 30.6921 5.65381 29.5728 5.65381 28.1921V27.0537C5.65381 25.673 4.53453 24.5537 3.15381 24.5537H2.5ZM11.3076 27.0537C11.3076 25.673 12.4269 24.5537 13.8076 24.5537H14.4615C15.8422 24.5537 16.9615 25.673 16.9615 27.0537V28.1921C16.9615 29.5728 15.8422 30.6921 14.4615 30.6921H13.8076C12.4269 30.6921 11.3076 29.5728 11.3076 28.1921V27.0537ZM25.1153 24.5537C23.7346 24.5537 22.6153 25.673 22.6153 27.0537V28.1921C22.6153 29.5728 23.7346 30.6921 25.1153 30.6921H25.7691C27.1498 30.6921 28.2691 29.5728 28.2691 28.1921V27.0537C28.2691 25.673 27.1498 24.5537 25.7691 24.5537H25.1153Z" fill="#5B5A99"/>
</svg>
