<svg width="264" height="242" viewBox="0 0 264 242" fill="none" xmlns="http://www.w3.org/2000/svg">
<g opacity="0.24" filter="url(#filter0_f_55_6291)">
<ellipse cx="191.257" cy="107.341" rx="44.7434" ry="44.1756" fill="#EF85F4"/>
</g>
<path d="M113.667 241.387L159.156 214.784V162.536L113.667 189.948V241.387Z" fill="url(#paint0_linear_55_6291)"/>
<path d="M113.696 241.791L70.2148 217.215V163.289L113.696 190.399V241.791Z" fill="url(#paint1_linear_55_6291)"/>
<path opacity="0.4" d="M106.805 229.349L77.1064 212.563V175.73L106.805 194.247V229.349Z" stroke="url(#paint2_linear_55_6291)" stroke-width="0.864"/>
<path opacity="0.405357" d="M114.587 176.056L92.239 163.269L0 0H118.446L133.743 163.269L114.587 176.056Z" fill="url(#paint3_linear_55_6291)"/>
<path opacity="0.405357" d="M133.744 163.435L178.44 11.9752H92.2402L124.166 182.367L133.744 163.435Z" fill="url(#paint4_linear_55_6291)"/>
<path d="M156.525 100.339C161.871 96.8527 165.635 96.473 167.929 98.0891L171.551 99.9813L170.702 101.202C173.472 109.47 166.323 128.324 151.32 137.286C148.161 139.173 145.568 140.121 143.5 140.314L142.714 141.444L140.101 139.775C132.179 135.721 139.674 111.329 156.525 100.339Z" fill="#CD943B"/>
<path d="M160.884 102.123C138.946 116.489 131.708 153.488 155.018 139.507C178.327 125.525 182.821 87.7572 160.884 102.123Z" fill="url(#paint5_linear_55_6291)"/>
<path opacity="0.4" d="M159.714 107.799C144.005 118.423 139.132 144.98 155.823 134.641C172.514 124.301 175.423 97.1757 159.714 107.799Z" stroke="#CD943B" stroke-width="0.5"/>
<path d="M46.7892 92.7814C40.4876 93.792 36.8944 92.6078 35.4556 90.1982L32.9163 86.9964L34.1885 86.2265C35.0214 77.5466 49.2201 63.2308 66.572 61.1455C70.225 60.7064 72.9796 60.8958 74.9475 61.5606L76.1253 60.8478L77.8329 63.4349C83.4214 70.3606 66.6536 89.5955 46.7892 92.7814Z" fill="#CD943B"/>
<path d="M43.5343 89.3778C69.4187 85.1768 91.0794 54.3201 64.0985 57.612C37.1175 60.9039 17.6498 93.5788 43.5343 89.3778Z" fill="url(#paint6_linear_55_6291)"/>
<path opacity="0.4" d="M46.9131 84.6695C65.585 81.3536 80.8379 59.0745 61.3844 61.7312C41.931 64.3879 28.2412 87.9854 46.9131 84.6695Z" stroke="#CD943B" stroke-width="0.5"/>
<path d="M143.46 48.2978C143.442 43.9343 144.656 41.7214 146.49 41.1378L148.994 39.9436L149.392 40.913C155.343 42.8257 163.763 54.5394 163.328 66.4457C163.237 68.9523 162.805 70.761 162.129 71.9704L162.497 72.8679L160.511 73.6031C155.083 76.2502 143.518 62.0529 143.46 48.2978Z" fill="#CD943B"/>
<path d="M145.988 46.9338C146.098 64.8652 165.219 84.1445 165.861 65.6234C166.503 47.1023 145.877 29.0024 145.988 46.9338Z" fill="url(#paint7_linear_55_6291)"/>
<path opacity="0.3" d="M148.189 49.0167C148.275 62.9579 163.141 77.947 163.64 63.5474C164.139 49.1477 148.103 35.0755 148.189 49.0167Z" stroke="#CD943B" stroke-width="0.5"/>
<path d="M70.2148 163.704L114.868 139.204L158.483 162.951L113.741 190.249L70.2148 163.704Z" fill="url(#paint8_linear_55_6291)"/>
<path d="M92.3223 164.282L114.69 152L136.538 163.905L114.125 177.591L92.3223 164.282Z" fill="url(#paint9_linear_55_6291)"/>
<g opacity="0.405357" filter="url(#filter1_f_55_6291)">
<ellipse cx="154.834" cy="204.911" rx="28.5877" ry="28.2249" fill="#F6C688"/>
</g>
<g opacity="0.405357" filter="url(#filter2_f_55_6291)">
<ellipse cx="61.9381" cy="171.323" rx="27.1656" ry="26.8209" fill="#EF8596"/>
</g>
<path d="M115.19 163.29V122.479L133.739 108.166C133.951 108.002 134.075 107.75 134.075 107.482V80.4969" stroke="url(#paint10_linear_55_6291)" stroke-width="0.864"/>
<path d="M115.126 122.344V103.536C115.126 103.059 114.739 102.672 114.262 102.672H99.1826V81.25" stroke="url(#paint11_linear_55_6291)" stroke-width="0.864"/>
<ellipse cx="99.5633" cy="81.6247" rx="3.43052" ry="3.38699" fill="url(#paint12_linear_55_6291)"/>
<ellipse cx="133.868" cy="81.6247" rx="3.43052" ry="3.38699" fill="url(#paint13_linear_55_6291)"/>
<ellipse cx="115.574" cy="121.517" rx="3.43052" ry="3.38699" fill="url(#paint14_linear_55_6291)"/>
<path d="M67.4496 110.304C69.9992 105.348 72.6888 103.471 75.1246 103.764L78.6855 103.713L78.568 105.019C84.2304 110.283 86.9366 127.944 79.4262 141.216C77.8451 144.01 76.2876 145.836 74.8031 146.855L74.6943 148.064L71.995 147.864C64.2429 148.041 59.4123 125.929 67.4496 110.304Z" fill="#CD943B"/>
<path d="M71.1386 110.074C60.7005 130.46 71.159 162.266 82.8024 141.603C94.4458 120.939 81.5768 89.6879 71.1386 110.074Z" fill="url(#paint15_linear_55_6291)"/>
<path opacity="0.4" d="M72.6371 114.169C64.9129 129.255 72.6522 152.791 81.2683 137.5C89.8844 122.209 80.3613 99.0836 72.6371 114.169Z" stroke="#CD943B" stroke-width="0.5"/>
<path opacity="0.2" fill-rule="evenodd" clip-rule="evenodd" d="M86.9988 128.902C86.9851 128.908 86.9714 128.915 86.9576 128.921C79.8646 132.245 73.8936 137.779 69.6759 143.6C72.6483 149.596 77.6075 150.822 82.8027 141.602C85.05 137.614 86.3841 133.231 86.9988 128.902Z" fill="black"/>
<defs>
<filter id="filter0_f_55_6291" x="118.514" y="35.1658" width="145.486" height="144.351" filterUnits="userSpaceOnUse" color-interpolation-filters="sRGB">
<feFlood flood-opacity="0" result="BackgroundImageFix"/>
<feBlend mode="normal" in="SourceGraphic" in2="BackgroundImageFix" result="shape"/>
<feGaussianBlur stdDeviation="14" result="effect1_foregroundBlur_55_6291"/>
</filter>
<filter id="filter1_f_55_6291" x="119.246" y="169.687" width="71.1758" height="70.4498" filterUnits="userSpaceOnUse" color-interpolation-filters="sRGB">
<feFlood flood-opacity="0" result="BackgroundImageFix"/>
<feBlend mode="normal" in="SourceGraphic" in2="BackgroundImageFix" result="shape"/>
<feGaussianBlur stdDeviation="3.5" result="effect1_foregroundBlur_55_6291"/>
</filter>
<filter id="filter2_f_55_6291" x="17.7725" y="127.502" width="88.3311" height="87.6418" filterUnits="userSpaceOnUse" color-interpolation-filters="sRGB">
<feFlood flood-opacity="0" result="BackgroundImageFix"/>
<feBlend mode="normal" in="SourceGraphic" in2="BackgroundImageFix" result="shape"/>
<feGaussianBlur stdDeviation="8.5" result="effect1_foregroundBlur_55_6291"/>
</filter>
<linearGradient id="paint0_linear_55_6291" x1="140.514" y1="70.828" x2="-2.28472" y2="120.845" gradientUnits="userSpaceOnUse">
<stop stop-color="#E5B861"/>
<stop offset="1" stop-color="#CB3AB6"/>
</linearGradient>
<linearGradient id="paint1_linear_55_6291" x1="135.824" y1="202.875" x2="49.7938" y2="150.936" gradientUnits="userSpaceOnUse">
<stop stop-color="#622192"/>
<stop offset="1" stop-color="#CC2F63"/>
</linearGradient>
<linearGradient id="paint2_linear_55_6291" x1="73.7078" y1="162.326" x2="37.0654" y2="212.208" gradientUnits="userSpaceOnUse">
<stop stop-color="#F8D6A1"/>
<stop offset="0.482372" stop-color="#C57C9F"/>
<stop offset="1" stop-color="#F7D048"/>
</linearGradient>
<linearGradient id="paint3_linear_55_6291" x1="33.6312" y1="18.7778" x2="33.6312" y2="249.451" gradientUnits="userSpaceOnUse">
<stop stop-color="#FBF28D" stop-opacity="0.01"/>
<stop offset="0.4936" stop-color="#FAF18C" stop-opacity="0.240234"/>
<stop offset="1" stop-color="#F9F08A"/>
</linearGradient>
<linearGradient id="paint4_linear_55_6291" x1="75.6978" y1="31.0448" x2="75.6978" y2="196.431" gradientUnits="userSpaceOnUse">
<stop stop-color="#FBF28D" stop-opacity="0.01"/>
<stop offset="0.4936" stop-color="#FAF18C" stop-opacity="0.240234"/>
<stop offset="1" stop-color="#F9F08A"/>
</linearGradient>
<linearGradient id="paint5_linear_55_6291" x1="135.332" y1="91.227" x2="116.62" y2="146.103" gradientUnits="userSpaceOnUse">
<stop stop-color="#FDF694"/>
<stop offset="1" stop-color="#D9C745"/>
</linearGradient>
<linearGradient id="paint6_linear_55_6291" x1="62.4451" y1="109.725" x2="101.859" y2="67.2042" gradientUnits="userSpaceOnUse">
<stop stop-color="#FDF694"/>
<stop offset="1" stop-color="#D9C745"/>
</linearGradient>
<linearGradient id="paint7_linear_55_6291" x1="129.771" y1="56.3739" x2="153.411" y2="90.4822" gradientUnits="userSpaceOnUse">
<stop stop-color="#FDF694"/>
<stop offset="1" stop-color="#D9C745"/>
</linearGradient>
<linearGradient id="paint8_linear_55_6291" x1="145.411" y1="105.09" x2="57.8626" y2="204.386" gradientUnits="userSpaceOnUse">
<stop stop-color="#E5B861"/>
<stop offset="0.977895" stop-color="#D44D81"/>
</linearGradient>
<linearGradient id="paint9_linear_55_6291" x1="127.754" y1="149.207" x2="73.886" y2="149.207" gradientUnits="userSpaceOnUse">
<stop stop-color="#F7D277"/>
<stop offset="1" stop-color="#BD3364"/>
</linearGradient>
<linearGradient id="paint10_linear_55_6291" x1="113.029" y1="59.7987" x2="62.4467" y2="88.1554" gradientUnits="userSpaceOnUse">
<stop stop-color="#F8D6A1"/>
<stop offset="0.482372" stop-color="#C57C9F"/>
<stop offset="1" stop-color="#FAE380"/>
</linearGradient>
<linearGradient id="paint11_linear_55_6291" x1="90.3442" y1="75.7561" x2="64.3447" y2="155.308" gradientUnits="userSpaceOnUse">
<stop stop-color="#F8D6A1"/>
<stop offset="1" stop-color="#9225A2"/>
</linearGradient>
<linearGradient id="paint12_linear_55_6291" x1="112.463" y1="90.8611" x2="105.756" y2="72.1076" gradientUnits="userSpaceOnUse">
<stop stop-color="#FEFCF6"/>
<stop offset="1" stop-color="#FCEFB5"/>
</linearGradient>
<linearGradient id="paint13_linear_55_6291" x1="146.768" y1="90.8611" x2="140.06" y2="72.1076" gradientUnits="userSpaceOnUse">
<stop stop-color="#FEFCF6"/>
<stop offset="1" stop-color="#FCEFB5"/>
</linearGradient>
<linearGradient id="paint14_linear_55_6291" x1="128.474" y1="130.754" x2="121.766" y2="112" gradientUnits="userSpaceOnUse">
<stop stop-color="#FEFCF6"/>
<stop offset="1" stop-color="#FCEFB5"/>
</linearGradient>
<linearGradient id="paint15_linear_55_6291" x1="47.0747" y1="112.339" x2="55.7554" y2="162.998" gradientUnits="userSpaceOnUse">
<stop stop-color="#FDF694"/>
<stop offset="1" stop-color="#D9C745"/>
</linearGradient>
</defs>
</svg>
