<svg width="22" height="22" viewBox="0 0 22 22" fill="none" xmlns="http://www.w3.org/2000/svg">
<g clip-path="url(#clip0_18_17524)">
<path d="M17.4167 0.916748H4.58341C4.36376 0.919277 4.15232 1.0006 3.98758 1.14591C4.64129 1.37591 5.21644 1.78644 5.64637 2.32994C6.07631 2.87344 6.34342 3.52765 6.41675 4.21675C6.43076 4.33857 6.43076 4.46159 6.41675 4.58341V20.1667C6.41631 20.3421 6.46617 20.5139 6.56041 20.6617C6.65464 20.8096 6.7893 20.9273 6.94841 21.0009C7.1079 21.0743 7.28512 21.1004 7.459 21.076C7.63288 21.0517 7.7961 20.9779 7.92925 20.8634L10.5417 18.6267L13.1542 20.8634C13.3203 21.0054 13.5316 21.0835 13.7501 21.0835C13.9686 21.0835 14.1799 21.0054 14.3459 20.8634L16.9584 18.6267L19.5709 20.8634C19.737 21.0054 19.9483 21.0834 20.1667 21.0834C20.2994 21.0825 20.4304 21.0544 20.5517 21.0009C20.7109 20.9273 20.8455 20.8096 20.9398 20.6617C21.034 20.5139 21.0838 20.3421 21.0834 20.1667V4.58341C21.0834 3.61095 20.6971 2.67832 20.0095 1.99069C19.3218 1.30306 18.3892 0.916748 17.4167 0.916748ZM16.5001 13.7501H11.0001C10.757 13.7501 10.5238 13.6535 10.3519 13.4816C10.18 13.3097 10.0834 13.0765 10.0834 12.8334C10.0834 12.5903 10.18 12.3571 10.3519 12.1852C10.5238 12.0133 10.757 11.9167 11.0001 11.9167H16.5001C16.7432 11.9167 16.9764 12.0133 17.1483 12.1852C17.3202 12.3571 17.4167 12.5903 17.4167 12.8334C17.4167 13.0765 17.3202 13.3097 17.1483 13.4816C16.9764 13.6535 16.7432 13.7501 16.5001 13.7501ZM16.5001 10.0834H11.0001C10.757 10.0834 10.5238 9.98684 10.3519 9.81493C10.18 9.64302 10.0834 9.40986 10.0834 9.16675C10.0834 8.92363 10.18 8.69048 10.3519 8.51857C10.5238 8.34666 10.757 8.25008 11.0001 8.25008H16.5001C16.7432 8.25008 16.9764 8.34666 17.1483 8.51857C17.3202 8.69048 17.4167 8.92363 17.4167 9.16675C17.4167 9.40986 17.3202 9.64302 17.1483 9.81493C16.9764 9.98684 16.7432 10.0834 16.5001 10.0834ZM16.5001 6.41675H11.0001C10.757 6.41675 10.5238 6.32017 10.3519 6.14826C10.18 5.97635 10.0834 5.7432 10.0834 5.50008C10.0834 5.25697 10.18 5.02381 10.3519 4.8519C10.5238 4.67999 10.757 4.58341 11.0001 4.58341H16.5001C16.7432 4.58341 16.9764 4.67999 17.1483 4.8519C17.3202 5.02381 17.4167 5.25697 17.4167 5.50008C17.4167 5.7432 17.3202 5.97635 17.1483 6.14826C16.9764 6.32017 16.7432 6.41675 16.5001 6.41675ZM4.58341 4.58341V11.9167H1.83341C1.5903 11.9167 1.35714 11.8202 1.18523 11.6483C1.01333 11.4764 0.916748 11.2432 0.916748 11.0001V4.58341C0.916748 4.45508 0.916748 4.33591 0.916748 4.21675C0.965371 3.73052 1.20516 3.28352 1.58336 2.97408C1.96155 2.66465 2.44718 2.51813 2.93341 2.56675C3.41964 2.61537 3.86664 2.85516 4.17608 3.23336C4.48551 3.61155 4.63204 4.09718 4.58341 4.58341Z" fill="#D1D1D1"/>
</g>
<defs>
<clipPath id="clip0_18_17524">
<rect width="22" height="22" fill="white"/>
</clipPath>
</defs>
</svg>
