<svg width="22" height="23" viewBox="0 0 22 23" fill="none" xmlns="http://www.w3.org/2000/svg">
<path d="M15.125 4.875C15.125 7.19531 13.2773 9 11 9C8.67969 9 6.875 7.19531 6.875 4.875C6.875 2.59766 8.67969 0.75 11 0.75C13.2773 0.75 15.125 2.59766 15.125 4.875ZM10.0117 11.1484C10.1836 11.2344 10.3125 11.4062 10.3125 11.6211V22.1914C10.3125 22.6211 9.79688 22.9219 9.41016 22.707C6.78906 21.375 3.00781 21.0312 1.11719 20.9023C0.472656 20.9023 0 20.3867 0 19.7422V10.2031C0 9.51562 0.558594 9 1.24609 9.04297C3.35156 9.12891 7.47656 9.55859 10.0117 11.1484ZM20.7109 9.04297C21.3984 9 22 9.51562 22 10.2031V19.7422C22 20.3867 21.4844 20.9023 20.8398 20.9453C18.9492 21.0312 15.168 21.375 12.5469 22.707C12.1602 22.9219 11.6875 22.6211 11.6875 22.1914V11.6211C11.6875 11.4492 11.7734 11.2344 11.9453 11.1484C14.4805 9.55859 18.6055 9.12891 20.7109 9.04297Z" fill="white"/>
</svg>
