<svg width="22" height="17" viewBox="0 0 22 17" fill="none" xmlns="http://www.w3.org/2000/svg">
<path d="M20.2812 3.06467H16.3556V2.29688C16.3556 1.03032 15.2762 0 13.9494 0H7.36314C6.03627 0 4.95689 1.03032 4.95689 2.29688V3.06467H1.03125C0.460611 3.06467 0 3.50435 0 4.04905V14.6869C0 15.9534 1.07938 16.9838 2.40625 16.9838H18.9062C20.2331 16.9838 21.3125 15.9534 21.3125 14.6869V4.04905C21.3125 3.50435 20.8519 3.06467 20.2812 3.06467ZM7.01939 2.29688C7.01939 2.11967 7.1775 1.96875 7.36314 1.96875H13.9494C14.135 1.96875 14.2931 2.11967 14.2931 2.29688V3.06467H7.01939V2.29688ZM12.4644 9.44344V10.7428H8.84812V9.44344H12.4644ZM19.25 14.6869C19.25 14.864 19.0988 15.015 18.9062 15.015H2.40625C2.21373 15.015 2.0625 14.864 2.0625 14.6869V9.765C3.0731 10.5787 4.37937 11.0775 5.8025 11.0775H6.78562V11.7272C6.78562 12.2719 7.24624 12.7116 7.81687 12.7116H13.4956C14.0663 12.7116 14.5269 12.2719 14.5269 11.7272V11.0775H15.51C16.9331 11.0775 18.2394 10.5787 19.25 9.765V14.6869Z" fill="white"/>
</svg>
