<svg width="26" height="26" viewBox="0 0 26 26" fill="none" xmlns="http://www.w3.org/2000/svg">
<path fill-rule="evenodd" clip-rule="evenodd" d="M14.596 6.65508C14.6645 6.47917 14.702 6.28783 14.702 6.08772C14.702 5.22325 14.0012 4.52246 13.1368 4.52246C12.2723 4.52246 11.5715 5.22325 11.5715 6.08772C11.5715 6.28783 11.609 6.47917 11.6775 6.65508L6.99065 11.0662C6.73652 10.8881 6.42702 10.7835 6.09309 10.7835C5.22862 10.7835 4.52783 11.4843 4.52783 12.3488C4.52783 13.2132 5.22862 13.914 6.09309 13.914C6.95756 13.914 7.65835 13.2132 7.65835 12.3488C7.65835 12.2546 7.65003 12.1623 7.63409 12.0728L12.4821 7.50992C12.6813 7.60175 12.903 7.65298 13.1368 7.65298C13.3705 7.65298 13.5922 7.60175 13.7914 7.50992L18.0632 11.5304C17.9169 11.7685 17.8325 12.0488 17.8325 12.3488C17.8325 13.2132 18.5333 13.914 19.3978 13.914C20.2623 13.914 20.963 13.2132 20.963 12.3488C20.963 11.4843 20.2623 10.7835 19.3978 10.7835C19.2707 10.7835 19.1472 10.7986 19.0289 10.8272L14.596 6.65508Z" fill="#FF9053"/>
<path d="M11.1486 18.5692C8.99835 15.8056 9.52823 14.3601 13.1369 11.9575C17.0785 14.6357 17.0552 16.0802 15.0935 18.6099L11.1486 18.5692Z" fill="#FFD5BE"/>
<path d="M11.1803 18.6099C8.99324 15.8197 9.51057 14.3719 13.1369 11.9575C17.0785 14.6357 17.0552 16.0802 15.0935 18.6099L11.1486 18.5692" stroke="#FFD5BE" stroke-width="0.782629" stroke-linecap="round"/>
<path d="M10.7888 18.6099H15.4846V20.9578C15.4846 21.39 15.1342 21.7404 14.702 21.7404H11.5714C11.1392 21.7404 10.7888 21.39 10.7888 20.9578V18.6099Z" fill="#FF9053"/>
</svg>
